<svg width="160" height="28" viewBox="0 0 160 28" fill="none" xmlns="http://www.w3.org/2000/svg">
<path d="M2.03832 21V7.51H4.92632V13.4L9.82832 7.51H13.1913L8.23232 13.457L13.4953 21H10.2083L6.33232 15.395L4.92632 17.029V21H2.03832ZM18.5639 21.228C17.5252 21.228 16.6195 21.0127 15.8469 20.582C15.0742 20.1387 14.4725 19.518 14.0419 18.72C13.6112 17.922 13.3959 16.9847 13.3959 15.908C13.3959 14.8313 13.6112 13.9003 14.0419 13.115C14.4725 12.317 15.0742 11.6963 15.8469 11.253C16.6195 10.8097 17.5252 10.588 18.5639 10.588C19.6025 10.588 20.5082 10.8097 21.2809 11.253C22.0535 11.6963 22.6552 12.317 23.0859 13.115C23.5165 13.9003 23.7319 14.8313 23.7319 15.908C23.7319 16.9847 23.5165 17.922 23.0859 18.72C22.6552 19.518 22.0535 20.1387 21.2809 20.582C20.5082 21.0127 19.6025 21.228 18.5639 21.228ZM18.5639 19.043C19.2732 19.043 19.8242 18.7707 20.2169 18.226C20.6095 17.6687 20.8059 16.896 20.8059 15.908C20.8059 14.92 20.6095 14.1537 20.2169 13.609C19.8242 13.0517 19.2732 12.773 18.5639 12.773C17.8545 12.773 17.3035 13.0517 16.9109 13.609C16.5182 14.1537 16.3219 14.92 16.3219 15.908C16.3219 16.896 16.5182 17.6687 16.9109 18.226C17.3035 18.7707 17.8545 19.043 18.5639 19.043ZM29.8574 21.228C28.8061 21.228 27.9258 21.0823 27.2164 20.791C26.5071 20.487 25.9624 20.0817 25.5824 19.575C25.2151 19.0557 25.0061 18.4603 24.9554 17.789L27.8434 17.694C27.9321 18.1753 28.1348 18.549 28.4514 18.815C28.7681 19.081 29.2368 19.214 29.8574 19.214C30.3641 19.214 30.7568 19.1317 31.0354 18.967C31.3268 18.8023 31.4724 18.549 31.4724 18.207C31.4724 17.9917 31.4218 17.8143 31.3204 17.675C31.2191 17.523 31.0164 17.3963 30.7124 17.295C30.4211 17.181 29.9841 17.0797 29.4014 16.991C28.3248 16.801 27.4824 16.5793 26.8744 16.326C26.2664 16.0727 25.8358 15.7433 25.5824 15.338C25.3291 14.9327 25.2024 14.4387 25.2024 13.856C25.2024 12.8807 25.5761 12.0953 26.3234 11.5C27.0834 10.892 28.2171 10.588 29.7244 10.588C30.6871 10.588 31.4914 10.74 32.1374 11.044C32.7961 11.348 33.3028 11.766 33.6574 12.298C34.0248 12.8173 34.2528 13.4127 34.3414 14.084L31.4724 14.198C31.4344 13.8687 31.3331 13.59 31.1684 13.362C31.0164 13.1213 30.8201 12.9377 30.5794 12.811C30.3388 12.6717 30.0474 12.602 29.7054 12.602C29.1988 12.602 28.8061 12.7097 28.5274 12.925C28.2614 13.1277 28.1284 13.4 28.1284 13.742C28.1284 13.9953 28.1854 14.2043 28.2994 14.369C28.4261 14.521 28.6288 14.6477 28.9074 14.749C29.1861 14.8503 29.5598 14.9327 30.0284 14.996C31.1178 15.148 31.9791 15.3633 32.6124 15.642C33.2584 15.908 33.7208 16.2437 33.9994 16.649C34.2781 17.0543 34.4174 17.5547 34.4174 18.15C34.4174 18.8087 34.2274 19.366 33.8474 19.822C33.4674 20.278 32.9354 20.6263 32.2514 20.867C31.5801 21.1077 30.7821 21.228 29.8574 21.228ZM39.5194 21.228C38.4681 21.228 37.6447 20.8923 37.0494 20.221C36.4667 19.537 36.1754 18.587 36.1754 17.371V10.816H39.0254V16.706C39.0254 17.4913 39.1457 18.0677 39.3864 18.435C39.6271 18.7897 40.0071 18.967 40.5264 18.967C41.1091 18.967 41.5587 18.7707 41.8754 18.378C42.2047 17.9727 42.3694 17.371 42.3694 16.573V10.816H45.2194V21H42.6164L42.5404 18.074L42.9014 18.15C42.7494 19.1633 42.3884 19.9297 41.8184 20.449C41.2484 20.9683 40.4821 21.228 39.5194 21.228ZM47.568 21V7.51H50.418V14.996L54.199 10.816H57.619L53.667 15.015L57.733 21H54.617L51.824 16.63L50.418 18.131V21H47.568ZM63.0942 21.228C62.0556 21.228 61.1499 21.0127 60.3772 20.582C59.6172 20.1387 59.0219 19.518 58.5912 18.72C58.1732 17.922 57.9642 16.9847 57.9642 15.908C57.9642 14.8313 58.1732 13.9003 58.5912 13.115C59.0219 12.317 59.6172 11.6963 60.3772 11.253C61.1372 10.8097 62.0366 10.588 63.0752 10.588C64.0886 10.588 64.9689 10.8097 65.7162 11.253C66.4636 11.6963 67.0399 12.3297 67.4452 13.153C67.8632 13.9763 68.0722 14.958 68.0722 16.098V16.668H60.9092C60.9472 17.4787 61.1626 18.0803 61.5552 18.473C61.9606 18.8657 62.4926 19.062 63.1512 19.062C63.6326 19.062 64.0316 18.9607 64.3482 18.758C64.6776 18.5553 64.9119 18.245 65.0512 17.827L67.9202 17.998C67.6542 19.0113 67.0906 19.803 66.2292 20.373C65.3679 20.943 64.3229 21.228 63.0942 21.228ZM60.9092 14.92H65.1462C65.1082 14.1727 64.8992 13.6153 64.5192 13.248C64.1519 12.8807 63.6706 12.697 63.0752 12.697C62.4799 12.697 61.9859 12.8933 61.5932 13.286C61.2132 13.666 60.9852 14.2107 60.9092 14.92ZM77.3254 21V9.942H73.2974V7.51H84.2794V9.942H80.2324V21H77.3254ZM88.7739 21.228C87.7353 21.228 86.8296 21.0127 86.0569 20.582C85.2969 20.1387 84.7016 19.518 84.2709 18.72C83.8529 17.922 83.6439 16.9847 83.6439 15.908C83.6439 14.8313 83.8529 13.9003 84.2709 13.115C84.7016 12.317 85.2969 11.6963 86.0569 11.253C86.8169 10.8097 87.7163 10.588 88.7549 10.588C89.7683 10.588 90.6486 10.8097 91.3959 11.253C92.1433 11.6963 92.7196 12.3297 93.1249 13.153C93.5429 13.9763 93.7519 14.958 93.7519 16.098V16.668H86.5889C86.6269 17.4787 86.8423 18.0803 87.2349 18.473C87.6403 18.8657 88.1723 19.062 88.8309 19.062C89.3123 19.062 89.7113 18.9607 90.0279 18.758C90.3573 18.5553 90.5916 18.245 90.7309 17.827L93.5999 17.998C93.3339 19.0113 92.7703 19.803 91.9089 20.373C91.0476 20.943 90.0026 21.228 88.7739 21.228ZM86.5889 14.92H90.8259C90.7879 14.1727 90.5789 13.6153 90.1989 13.248C89.8316 12.8807 89.3503 12.697 88.7549 12.697C88.1596 12.697 87.6656 12.8933 87.2729 13.286C86.8929 13.666 86.6649 14.2107 86.5889 14.92ZM95.5133 21V10.816H98.0783L98.1733 13.267L97.9073 13.153C98.0466 12.6083 98.2556 12.146 98.5343 11.766C98.8256 11.386 99.1739 11.0947 99.5793 10.892C99.9846 10.6893 100.428 10.588 100.909 10.588C101.758 10.588 102.442 10.835 102.961 11.329C103.493 11.823 103.835 12.488 103.987 13.324L103.626 13.343C103.74 12.7477 103.937 12.2473 104.215 11.842C104.507 11.424 104.861 11.1137 105.279 10.911C105.697 10.6957 106.166 10.588 106.685 10.588C107.395 10.588 108.003 10.7337 108.509 11.025C109.016 11.3163 109.409 11.7533 109.687 12.336C109.966 12.906 110.105 13.609 110.105 14.445V21H107.255V15.243C107.255 14.445 107.135 13.8497 106.894 13.457C106.654 13.0517 106.261 12.849 105.716 12.849C105.374 12.849 105.083 12.944 104.842 13.134C104.602 13.324 104.412 13.6027 104.272 13.97C104.146 14.3247 104.082 14.7617 104.082 15.281V21H101.517V15.281C101.517 14.4957 101.403 13.894 101.175 13.476C100.947 13.058 100.555 12.849 99.9973 12.849C99.6553 12.849 99.3576 12.944 99.1043 13.134C98.8636 13.324 98.6799 13.6027 98.5533 13.97C98.4266 14.3373 98.3633 14.7743 98.3633 15.281V21H95.5133ZM112.324 23.85V10.816H115.06L115.117 12.963L114.889 12.868C115.142 12.1333 115.554 11.5697 116.124 11.177C116.694 10.7843 117.359 10.588 118.119 10.588C119.069 10.588 119.86 10.8223 120.494 11.291C121.127 11.7597 121.602 12.3993 121.919 13.21C122.248 14.008 122.413 14.9073 122.413 15.908C122.413 16.896 122.248 17.7953 121.919 18.606C121.602 19.4167 121.121 20.0563 120.475 20.525C119.841 20.9937 119.05 21.228 118.1 21.228C117.606 21.228 117.143 21.1393 116.713 20.962C116.282 20.772 115.908 20.5123 115.592 20.183C115.288 19.8537 115.066 19.461 114.927 19.005L115.174 18.853V23.85H112.324ZM117.321 19.043C117.992 19.043 118.518 18.7643 118.898 18.207C119.29 17.6497 119.487 16.8833 119.487 15.908C119.487 14.9327 119.29 14.1663 118.898 13.609C118.518 13.0517 117.992 12.773 117.321 12.773C116.877 12.773 116.491 12.8933 116.162 13.134C115.845 13.362 115.598 13.7103 115.421 14.179C115.256 14.6477 115.174 15.224 115.174 15.908C115.174 16.592 115.256 17.1683 115.421 17.637C115.598 18.1057 115.845 18.4603 116.162 18.701C116.491 18.929 116.877 19.043 117.321 19.043ZM126.933 21C126.097 21 125.445 20.791 124.976 20.373C124.507 19.955 124.273 19.2773 124.273 18.34V7.51H127.123V18.036C127.123 18.34 127.193 18.5553 127.332 18.682C127.471 18.8087 127.674 18.872 127.94 18.872H128.624V21H126.933ZM133.213 21.228C132.162 21.228 131.3 20.9873 130.629 20.506C129.97 20.012 129.641 19.328 129.641 18.454C129.641 17.5547 129.92 16.8643 130.477 16.383C131.047 15.889 131.883 15.528 132.985 15.3L136.272 14.654C136.272 13.9953 136.12 13.5013 135.816 13.172C135.525 12.83 135.1 12.659 134.543 12.659C133.998 12.659 133.574 12.7857 133.27 13.039C132.966 13.2797 132.77 13.6407 132.681 14.122L129.812 13.989C130.002 12.8743 130.502 12.032 131.313 11.462C132.136 10.8793 133.213 10.588 134.543 10.588C136.063 10.588 137.203 10.949 137.963 11.671C138.736 12.393 139.122 13.4507 139.122 14.844V18.321C139.122 18.6123 139.166 18.8087 139.255 18.91C139.356 18.9987 139.502 19.043 139.692 19.043H139.977V21C139.888 21.0253 139.743 21.0507 139.54 21.076C139.35 21.1013 139.16 21.114 138.97 21.114C138.565 21.114 138.185 21.0443 137.83 20.905C137.488 20.7657 137.209 20.5313 136.994 20.202C136.779 19.86 136.671 19.3787 136.671 18.758L136.918 18.948C136.791 19.404 136.563 19.803 136.234 20.145C135.917 20.487 135.499 20.753 134.98 20.943C134.473 21.133 133.884 21.228 133.213 21.228ZM133.897 19.271C134.366 19.271 134.777 19.1823 135.132 19.005C135.487 18.815 135.765 18.5427 135.968 18.188C136.171 17.8333 136.272 17.4153 136.272 16.934V16.44L133.954 16.934C133.498 17.0227 133.15 17.1747 132.909 17.39C132.681 17.5927 132.567 17.8587 132.567 18.188C132.567 18.53 132.681 18.796 132.909 18.986C133.137 19.176 133.466 19.271 133.897 19.271ZM145.135 21C144.083 21 143.311 20.7593 142.817 20.278C142.323 19.784 142.076 19.005 142.076 17.941V8.422H144.926V17.599C144.926 18.093 145.027 18.4287 145.23 18.606C145.445 18.7833 145.762 18.872 146.18 18.872H147.605V21H145.135ZM140.442 12.944V10.816H147.605V12.944H140.442ZM153.697 21.228C152.658 21.228 151.752 21.0127 150.98 20.582C150.22 20.1387 149.624 19.518 149.194 18.72C148.776 17.922 148.567 16.9847 148.567 15.908C148.567 14.8313 148.776 13.9003 149.194 13.115C149.624 12.317 150.22 11.6963 150.98 11.253C151.74 10.8097 152.639 10.588 153.678 10.588C154.691 10.588 155.571 10.8097 156.319 11.253C157.066 11.6963 157.642 12.3297 158.048 13.153C158.466 13.9763 158.675 14.958 158.675 16.098V16.668H151.512C151.55 17.4787 151.765 18.0803 152.158 18.473C152.563 18.8657 153.095 19.062 153.754 19.062C154.235 19.062 154.634 18.9607 154.951 18.758C155.28 18.5553 155.514 18.245 155.654 17.827L158.523 17.998C158.257 19.0113 157.693 19.803 156.832 20.373C155.97 20.943 154.925 21.228 153.697 21.228ZM151.512 14.92H155.749C155.711 14.1727 155.502 13.6153 155.122 13.248C154.754 12.8807 154.273 12.697 153.678 12.697C153.082 12.697 152.588 12.8933 152.196 13.286C151.816 13.666 151.588 14.2107 151.512 14.92Z" fill="#F9F9F9"/>
</svg>
